<?xml version="1.0" standalone="no"?>
<!DOCTYPE svg PUBLIC "-//W3C//DTD SVG 20010904//EN"
 "http://www.w3.org/TR/2001/REC-SVG-20010904/DTD/svg10.dtd">
<svg version="1.0" xmlns="http://www.w3.org/2000/svg"
 width="512.000000pt" height="512.000000pt" viewBox="0 0 512.000000 512.000000"
 preserveAspectRatio="xMidYMid meet">
<metadata>
Created by potrace 1.11, written by Peter Selinger 2001-2013
</metadata>
<g transform="translate(0.000000,512.000000) scale(0.100000,-0.100000)"
fill="#000000" stroke="none">
<path d="M2345 5113 c-108 -12 -222 -26 -240 -29 -280 -53 -456 -109 -670
-213 -124 -59 -307 -166 -313 -182 -2 -5 -8 -9 -13 -9 -13 0 -99 -64 -206
-153 -440 -366 -756 -906 -857 -1462 -3 -16 -8 -41 -11 -55 -3 -14 -8 -47 -10
-75 -3 -27 -9 -84 -14 -125 -9 -79 -7 -515 2 -540 3 -8 8 -43 12 -78 8 -83 47
-275 80 -387 91 -312 265 -631 490 -895 38 -45 248 -255 300 -300 327 -286
741 -487 1160 -565 197 -36 569 -52 775 -32 493 48 963 249 1335 570 136 117
330 314 421 427 294 367 482 831 522 1290 13 153 4 611 -13 639 -1 3 -6 26 -9
51 -6 46 -8 54 -27 150 -11 58 -13 65 -55 200 -87 285 -239 568 -432 809 -317
396 -727 689 -1171 838 -139 47 -169 54 -391 98 -14 3 -52 8 -85 11 -33 3 -67
8 -75 11 -17 6 -458 12 -505 6z"/>
</g>
</svg>
